<svg width="547" height="467" viewBox="0 0 547 467" fill="none" xmlns="http://www.w3.org/2000/svg">
<path fill-rule="evenodd" clip-rule="evenodd" d="M547 0H546.369H462.885H176.332H96.969H92.2175L70.7523 98H154.867L159.319 77.675H445L432.03 134H66H63.9H62.8L47.3363 204.32H48.4363H50.5363H415.838L382.485 349.166L230.87 384.871L98.3437 353.661L103.815 330H19.7L0.618568 412.523H0.642755L0.639967 412.533L229.206 466.36L229.208 466.35L230.898 466.709L231.956 466.484L231.959 466.496L451.366 414.825L451.366 414.825H451.481L547 0ZM356.693 223H43.4L27.292 296.25H340.585L356.693 223Z" fill="#ECFFFD"/></svg>