<svg width="38" height="9" viewBox="0 0 38 9" fill="none" xmlns="http://www.w3.org/2000/svg">
<path d="M0.960938 9H3.9375C5.29102 9 6.375 8.61328 7.18945 7.82812C8.00391 7.04883 8.41406 6.00586 8.41406 4.69336C8.41406 1.96289 6.91992 0.597656 3.9375 0.597656H0.960938V9ZM2.85352 2.13867H3.7793C4.61133 2.13867 5.26172 2.37305 5.72461 2.83008C6.1875 3.28711 6.42188 3.91992 6.42188 4.7168C6.42188 5.56641 6.1875 6.23438 5.71875 6.72656C5.25 7.21875 4.61133 7.46484 3.79102 7.46484H2.85352V2.13867ZM16.8574 9L15.2695 6.51562C15.1875 6.38672 15.0938 6.25781 14.9941 6.12305C14.8945 5.98828 14.7891 5.85938 14.6836 5.74219C14.5723 5.625 14.4609 5.52539 14.3438 5.4375C14.2266 5.34961 14.1035 5.28516 13.9805 5.24414V5.2207C14.2617 5.13867 14.5195 5.02734 14.7539 4.88086C14.9883 4.74023 15.1875 4.56445 15.3516 4.36523C15.5156 4.16602 15.6387 3.94336 15.7324 3.69727C15.8203 3.45117 15.8672 3.17578 15.8672 2.88281C15.8672 1.35938 14.8477 0.597656 12.8086 0.597656H9.80859V9H11.7012V5.7832H12.2109C12.3281 5.7832 12.4336 5.8125 12.5332 5.85938C12.6328 5.90625 12.7266 5.97656 12.8203 6.07031C12.9141 6.16406 13.002 6.26953 13.0957 6.39844C13.1836 6.52734 13.2773 6.67383 13.377 6.83789L14.6836 9H16.8574ZM11.7012 2.01562H12.5566C13.4355 2.01562 13.875 2.38477 13.875 3.11719C13.875 3.46875 13.7461 3.76758 13.5 4.00195C13.2539 4.23633 12.9258 4.35352 12.5215 4.35352H11.7012V2.01562ZM25.0371 9L22.0488 0.597656H19.8047L16.7461 9H18.7969L19.3887 7.13086H22.377L22.9746 9H25.0371ZM21.9434 5.67773H19.793L20.707 2.83008C20.7832 2.58984 20.8301 2.34375 20.8535 2.09766H20.9004C20.9238 2.39062 20.9707 2.64258 21.041 2.85352L21.9434 5.67773ZM37.0781 0.597656H35.168L34.0078 6.20508C33.9375 6.52148 33.8965 6.83789 33.8848 7.14258H33.8613C33.8203 6.75 33.7734 6.45117 33.7266 6.24023L32.3496 0.597656H30.3223L28.7988 6.16992C28.6992 6.52734 28.6406 6.85547 28.6289 7.1543H28.5938C28.5703 6.75586 28.5293 6.43359 28.4824 6.19336L27.2988 0.597656H25.2305L27.4395 9H29.625L31.0547 3.60938C31.1191 3.36328 31.1719 3.05273 31.207 2.66602H31.2305C31.2422 3.01758 31.2891 3.32812 31.3652 3.60938L32.7598 9H34.8574L37.0781 0.597656Z" fill="#ECFFFD"/>
</svg>
