<svg width="103" height="16" viewBox="0 0 103 16" fill="none" xmlns="http://www.w3.org/2000/svg">
<path d="M46.0544 4.86214L48.2015 3.27767H41.0133V12.7689H48.2015V11.1845H43.0671V8.76117H47.4547V7.1767H43.0671V4.86214H46.0544Z" fill="white"/>
<path d="M35.5832 6.97476H33.0938V4.86214H37.0769L39.224 3.27767H31.04V12.7689H35.3187C37.7148 12.7689 39.0996 11.6816 39.0996 9.78641C39.0996 7.96893 37.8548 6.97476 35.5832 6.97476ZM35.2409 11.1845H33.0938V8.55923H35.2409C36.5479 8.55923 37.1547 8.99418 37.1547 9.87961C37.1547 10.7651 36.5012 11.1845 35.2409 11.1845Z" fill="white"/>
<path d="M54.0205 3.27767H50.1153V12.7689H52.169V10.0816H54.0361C56.5255 10.0816 58.0814 8.7767 58.0814 6.67961C58.0814 4.58253 56.5255 3.27767 54.0205 3.27767ZM53.9739 8.49709H52.1535V4.86214H53.9739C55.2964 4.86214 56.0121 5.51456 56.0121 6.67961C56.0121 7.84466 55.2964 8.49709 53.9739 8.49709Z" fill="white"/>
<path d="M27.5237 10.7184C26.9792 11.0136 26.3724 11.1689 25.75 11.1689C23.8985 11.1689 22.5604 9.84854 22.5604 8.03107C22.5604 6.21359 23.8985 4.8932 25.75 4.8932C26.419 4.87767 27.0725 5.09515 27.6171 5.4835L29.0952 4.39612L29.0018 4.30291C28.1461 3.54175 26.9947 3.1534 25.6878 3.1534C24.2719 3.1534 22.9805 3.63495 22.047 4.50485C21.1134 5.40583 20.5844 6.66408 20.6156 7.96893C20.6 9.28932 21.1134 10.5631 22.047 11.4951C23.0272 12.4117 24.3341 12.9243 25.6722 12.8932C27.1503 12.8932 28.4417 12.3806 29.313 11.4485L27.9905 10.4699L27.5237 10.7184Z" fill="white"/>
<path d="M82.7734 3.29321V12.7845H84.8272V8.90097H89.1993V12.7845H91.253V3.29321H89.1993V7.19223H84.8272V3.29321H82.7734ZM79.2416 12.7845H81.4043L77.3901 3.29321H75.3052L71.2132 12.7845H73.2825L74.1071 10.8738H78.4636L79.2416 12.7845ZM74.7295 9.28932L76.3165 5.4835L77.8101 9.28932H74.7295ZM95.8585 8.94757H97.1343L100.277 12.7689H102.922L98.7213 7.8602L102.393 3.27767H100.044L96.9943 7.34757H95.8585V3.27767H93.8047V12.7689H95.8585V8.94757ZM64.4295 6.99029V4.87767H69.7973V3.29321H62.3757V12.7845H66.6544C69.0505 12.7845 70.4352 11.6971 70.4352 9.80194C70.4352 7.98447 69.1905 6.99029 66.9189 6.99029H64.4295ZM64.4295 11.2V8.57476H66.5766C67.8836 8.57476 68.4904 9.00971 68.4904 9.89515C68.4904 10.7806 67.8524 11.2155 66.5766 11.2155H64.4295V11.2Z" fill="white"/>
<path d="M14.1897 3.21553C14.5632 3.69709 14.8743 4.22524 15.1388 4.78447L7.95062 10.0816L4.93219 8.18641V5.91845L7.93506 7.79806L14.1897 3.21553Z" fill="#21A038"/>
<path d="M1.86708 8.03107C1.86708 7.92233 1.86708 7.82913 1.88264 7.72039L0.0622508 7.62719C0.0622508 7.75146 0.0466919 7.89126 0.0466919 8.01554C0.0466919 10.1903 0.93355 12.1631 2.36497 13.5922L3.65636 12.3029C2.55168 11.2155 1.86708 9.70874 1.86708 8.03107Z" fill="url(#paint0_linear)"/>
<path d="M7.93505 1.97282C8.04396 1.97282 8.13732 1.97282 8.24623 1.98835L8.33958 0.170874C8.21511 0.170874 8.07508 0.15534 7.95061 0.15534C5.77236 0.15534 3.79638 1.04078 2.36496 2.4699L3.65635 3.75922C4.74547 2.65631 6.27025 1.97282 7.93505 1.97282Z" fill="url(#paint1_linear)"/>
<path d="M7.93505 14.0893C7.82614 14.0893 7.73278 14.0893 7.62387 14.0738L7.53052 15.8913C7.65499 15.8913 7.79502 15.9068 7.91949 15.9068C10.0977 15.9068 12.0737 15.0214 13.5051 13.5922L12.2137 12.3029C11.1246 13.4214 9.61541 14.0893 7.93505 14.0893Z" fill="url(#paint2_linear)"/>
<path d="M11.358 3.02913L12.8984 1.89515C11.5447 0.807768 9.81769 0.139807 7.93506 0.139807V1.95728C9.21089 1.97282 10.3934 2.36117 11.358 3.02913Z" fill="url(#paint3_linear)"/>
<path d="M15.839 8.03107C15.839 7.54952 15.7923 7.0835 15.7145 6.61748L14.0186 7.87573C14.0186 7.92233 14.0186 7.98447 14.0186 8.03107C14.0186 9.81748 13.2407 11.4175 12.0115 12.5204L13.2407 13.8718C14.8277 12.4427 15.839 10.3456 15.839 8.03107Z" fill="#21A038"/>
<path d="M7.93505 14.0893C6.14578 14.0893 4.54321 13.3126 3.43853 12.0854L2.0849 13.3126C3.53188 14.9126 5.61677 15.9068 7.93505 15.9068V14.0893Z" fill="url(#paint4_linear)"/>
<path d="M3.87418 3.54175L2.64503 2.19029C1.04246 3.63495 0.0466919 5.71651 0.0466919 8.03107H1.86708C1.86708 6.2602 2.64503 4.64466 3.87418 3.54175Z" fill="url(#paint5_linear)"/>
<defs>
<linearGradient id="paint0_linear" x1="2.17667" y1="13.3711" x2="0.318766" y2="8.0093" gradientUnits="userSpaceOnUse">
<stop offset="0.1444" stop-color="#F2E913"/>
<stop offset="0.3037" stop-color="#E7E518"/>
<stop offset="0.5823" stop-color="#CADB26"/>
<stop offset="0.891" stop-color="#A3CD39"/>
</linearGradient>
<linearGradient id="paint1_linear" x1="2.88386" y1="2.25918" x2="7.60486" y2="0.462982" gradientUnits="userSpaceOnUse">
<stop offset="0.0592" stop-color="#0FA8E0"/>
<stop offset="0.5385" stop-color="#0099F9"/>
<stop offset="0.9234" stop-color="#0291EB"/>
</linearGradient>
<linearGradient id="paint2_linear" x1="7.42363" y1="14.3564" x2="13.0503" y2="13.0868" gradientUnits="userSpaceOnUse">
<stop offset="0.1226" stop-color="#A3CD39"/>
<stop offset="0.2846" stop-color="#86C339"/>
<stop offset="0.8693" stop-color="#21A038"/>
</linearGradient>
<linearGradient id="paint3_linear" x1="7.56104" y1="1.30266" x2="12.2403" y2="2.74412" gradientUnits="userSpaceOnUse">
<stop offset="0.0566" stop-color="#0291EB"/>
<stop offset="0.79" stop-color="#0C8ACB"/>
</linearGradient>
<linearGradient id="paint4_linear" x1="2.54776" y1="13.6078" x2="7.57241" y2="15.4822" gradientUnits="userSpaceOnUse">
<stop offset="0.1324" stop-color="#F2E913"/>
<stop offset="0.2977" stop-color="#EBE716"/>
<stop offset="0.5306" stop-color="#D9E01F"/>
<stop offset="0.8023" stop-color="#BBD62D"/>
<stop offset="0.9829" stop-color="#A3CD39"/>
</linearGradient>
<linearGradient id="paint5_linear" x1="1.43184" y1="8.25059" x2="3.44089" y2="3.03269" gradientUnits="userSpaceOnUse">
<stop offset="0.0698" stop-color="#A3CD39"/>
<stop offset="0.2599" stop-color="#81C55F"/>
<stop offset="0.9216" stop-color="#0FA8E0"/>
</linearGradient>
</defs>
</svg>
