<?xml version="1.0"?>
<svg xmlns="http://www.w3.org/2000/svg" xmlns:xlink="http://www.w3.org/1999/xlink" xmlns:svgjs="http://svgjs.com/svgjs" version="1.1" width="512" height="512" x="0" y="0" viewBox="0 0 512 512" style="enable-background:new 0 0 512 512" xml:space="preserve"><g>
<g xmlns="http://www.w3.org/2000/svg">
	<path d="M502.974,305.88L189.547,169.814c-5.653-2.454-12.226-1.203-16.58,3.153c-4.355,4.355-5.605,10.93-3.153,16.58   L305.88,502.973c2.395,5.516,7.825,9.027,13.754,9.027c0.447,0,0.898-0.02,1.352-0.061c6.441-0.58,11.785-5.224,13.26-11.521   l31.518-134.656l134.656-31.518c6.297-1.474,10.94-6.818,11.521-13.26S508.906,308.456,502.974,305.88z M349.86,338.674   c-5.552,1.3-9.887,5.635-11.187,11.187l-23.315,99.611l-102.888-237l237.001,102.887L349.86,338.674z" fill="#ffffff" data-original="#000000" style=""/>
	<path d="M195,120c8.284,0,15-6.716,15-15V15c0-8.284-6.716-15-15-15s-15,6.716-15,15v90C180,113.284,186.716,120,195,120z" fill="#ffffff" data-original="#000000" style=""/>
	<path d="M120.754,248.033l-63.64,63.64c-5.858,5.858-5.858,15.355,0,21.213c5.857,5.858,15.356,5.858,21.213,0l63.64-63.64   c5.858-5.858,5.858-15.355,0-21.213C136.109,242.175,126.611,242.175,120.754,248.033z" fill="#ffffff" data-original="#000000" style=""/>
	<path d="M269.246,141.967l63.64-63.64c5.858-5.858,5.858-15.355,0-21.213c-5.857-5.858-15.355-5.858-21.213,0l-63.64,63.64   c-5.858,5.858-5.858,15.355,0,21.213C253.89,147.825,263.389,147.825,269.246,141.967z" fill="#ffffff" data-original="#000000" style=""/>
	<path d="M78.327,57.114c-5.857-5.858-15.355-5.858-21.213,0c-5.858,5.858-5.858,15.355,0,21.213l63.64,63.64   c5.857,5.858,15.356,5.858,21.213,0c5.858-5.858,5.858-15.355,0-21.213L78.327,57.114z" fill="#ffffff" data-original="#000000" style=""/>
	<path d="M120,195c0-8.284-6.716-15-15-15H15c-8.284,0-15,6.716-15,15s6.716,15,15,15h90C113.284,210,120,203.284,120,195z" fill="#ffffff" data-original="#000000" style=""/>
</g>















</g></svg>
