<svg width="65" height="40" viewBox="0 0 65 40" fill="none" xmlns="http://www.w3.org/2000/svg">
<path fill-rule="evenodd" clip-rule="evenodd" d="M65 0H0V40H14.0045L26.1677 12.1984L27.7625 8.55316L29.7365 12.0077L34.171 19.7681L35.8615 17.3531L37.8383 14.5291L39.3088 17.6468L49.8528 40H65V0ZM45.4302 40L37.1617 22.4709L35.6385 24.6469L33.829 27.2319L32.2635 24.4923L28.2375 17.4468L18.3705 40H45.4302ZM60 11.5C60 13.433 58.433 15 56.5 15C54.6475 15 53.1311 13.5607 53.0081 11.7394C51.9021 11.9086 50.7234 12 49.5 12C43.1487 12 38 9.53757 38 6.5C38 3.46243 43.1487 1 49.5 1C55.8513 1 61 3.46243 61 6.5C61 7.55881 60.3744 8.54776 59.2903 9.38687C59.7357 9.97406 60 10.7062 60 11.5Z" fill="black"/>
</svg>
